# xmcd
#
# Track frame offsets: 
#        150
#        23335
#        51237
#        73200
#        104809
#        151351
#        174213
#
# Disc length: 2939 seconds
#
# Revision: 0
# Processed by: cddbd v1.4PL0 Copyright (c) Steve Scherf et al.
# Submitted via: ExactAudioCopy v0.90b4
#
DISCID=560b7907
DTITLE=John Hiatt - Asheville, NC  12-21-02
DYEAR=1900
DGENRE=
TTITLE0=Lincoln Town
TTITLE1=Ride Along
TTITLE2=Drive South
TTITLE3=Tiki Bar Is Open
TTITLE4=Slow Turning
TTITLE5=Everybody Went Low
TTITLE6=Memphis In The Meantime
EXTD=
EXTT0=
EXTT1=
EXTT2=
EXTT3=
EXTT4=
EXTT5=
EXTT6=
PLAYORDER=
